<svg xmlns="http://www.w3.org/2000/svg" viewBox="0 0 192.7 122.93"><defs><style>.cls-1{fill:#dfdfdf;}.cls-2{fill:#fff;}.cls-3{fill:#6da9ad;}.cls-4{fill:#e6d566;}.cls-5{fill:#bd4c5f;}.cls-6{fill:#7f7f7f;}</style></defs><title>FirstInstruction</title><g id="Layer_2" data-name="Layer 2"><g id="Capa_1" data-name="Capa 1"><circle class="cls-1" cx="101.06" cy="61.47" r="58.95"/><path class="cls-2" d="M101.06,121a59.5,59.5,0,1,1,59.5-59.5A59.57,59.57,0,0,1,101.06,121Zm0-117.9a58.4,58.4,0,1,0,58.4,58.4A58.47,58.47,0,0,0,101.06,3.07Z"/><path class="cls-1" d="M101.06,122.93a61.47,61.47,0,1,1,61.47-61.46A61.53,61.53,0,0,1,101.06,122.93Zm0-121.83a60.36,60.36,0,1,0,60.36,60.36A60.43,60.43,0,0,0,101.06,1.1Z"/><path class="cls-3" d="M11.52,53.15H.72a.69.69,0,1,1,0-1.39h10.8a.69.69,0,1,1,0,1.39Z"/><path class="cls-3" d="M13.3,47.55a.73.73,0,0,1-.51-.2L5.16,40a.68.68,0,0,1,0-1,.74.74,0,0,1,1,0l7.64,7.38a.68.68,0,0,1,0,1A.73.73,0,0,1,13.3,47.55Z"/><path class="cls-3" d="M18.64,45.39a.71.71,0,0,1-.72-.69V34.26a.72.72,0,0,1,1.44,0V44.69A.71.71,0,0,1,18.64,45.39Z"/><rect class="cls-2" x="16.87" y="50.15" width="33.47" height="5"/><path d="M50.34,55.69H16.87a.55.55,0,0,1-.55-.55v-5a.55.55,0,0,1,.55-.55H50.34a.55.55,0,0,1,.55.55v5A.55.55,0,0,1,50.34,55.69Zm-32.91-1.1H49.79V50.7H17.42Z"/><rect class="cls-4" x="16.87" y="54.91" width="33.47" height="24.57"/><path d="M50.34,80H16.87a.55.55,0,0,1-.55-.55V54.91a.55.55,0,0,1,.55-.55H50.34a.55.55,0,0,1,.55.55V79.48A.55.55,0,0,1,50.34,80Zm-32.91-1.1H49.79V55.46H17.42Z"/><rect class="cls-4" x="20.05" y="74.43" width="3.4" height="2.49"/><path d="M23.45,77.48H20a.55.55,0,0,1-.55-.55V74.43a.55.55,0,0,1,.55-.55h3.4a.55.55,0,0,1,.55.55v2.49A.55.55,0,0,1,23.45,77.48Zm-2.85-1.1h2.3V75H20.6Z"/><rect class="cls-2" x="87.11" y="14.96" width="99.33" height="86.91"/><path d="M186.44,102.42H87.11a.55.55,0,0,1-.55-.55V15a.55.55,0,0,1,.55-.55h99.33A.55.55,0,0,1,187,15v86.91A.55.55,0,0,1,186.44,102.42Zm-98.78-1.1h98.23V15.51H87.66Z"/><polygon class="cls-3" points="87.11 110.26 88.12 110.26 88.12 110.26 87.11 110.26 87.11 110.26"/><path d="M88.12,110.81h-1a.55.55,0,1,1,0-1.1h1a.55.55,0,1,1,0,1.1Z"/><rect class="cls-5" x="87.11" y="83.42" width="99.33" height="26.85"/><path d="M186.44,110.81H87.11a.55.55,0,0,1-.55-.55V83.42a.55.55,0,0,1,.55-.55h99.33a.55.55,0,0,1,.55.55v26.85A.55.55,0,0,1,186.44,110.81Zm-98.78-1.1h98.23V84H87.66Z"/><rect class="cls-6" x="81.41" y="34.09" width="110.74" height="3.69"/><path d="M192.15,38.33H81.41a.55.55,0,0,1-.55-.55V34.09a.55.55,0,0,1,.55-.55H192.15a.55.55,0,0,1,.55.55v3.69A.55.55,0,0,1,192.15,38.33ZM82,37.23H191.6V34.64H82Z"/><rect class="cls-2" x="84.43" y="80.73" width="104.7" height="3.02"/><path d="M189.13,84.3H84.43a.55.55,0,0,1-.55-.55v-3a.55.55,0,0,1,.55-.55h104.7a.55.55,0,0,1,.55.55v3A.55.55,0,0,1,189.13,84.3ZM85,83.2h103.6V81.28H85Z"/><rect class="cls-3" x="104.9" y="19.32" width="10.07" height="10.07"/><path d="M115,29.94H104.9a.55.55,0,0,1-.55-.55V19.32a.55.55,0,0,1,.55-.55H115a.55.55,0,0,1,.55.55V29.39A.55.55,0,0,1,115,29.94Zm-9.52-1.1h9v-9h-9Z"/><rect class="cls-3" x="118.32" y="19.32" width="10.07" height="10.07"/><path d="M128.39,29.94H118.32a.55.55,0,0,1-.55-.55V19.32a.55.55,0,0,1,.55-.55h10.07a.55.55,0,0,1,.55.55V29.39A.55.55,0,0,1,128.39,29.94Zm-9.52-1.1h9v-9h-9Z"/><rect class="cls-3" x="131.74" y="19.32" width="10.07" height="10.07"/><path d="M141.81,29.94H131.74a.55.55,0,0,1-.55-.55V19.32a.55.55,0,0,1,.55-.55h10.07a.55.55,0,0,1,.55.55V29.39A.55.55,0,0,1,141.81,29.94Zm-9.52-1.1h9v-9h-9Z"/><rect class="cls-3" x="145.17" y="19.32" width="10.07" height="10.07"/><path d="M155.23,29.94H145.17a.55.55,0,0,1-.55-.55V19.32a.55.55,0,0,1,.55-.55h10.07a.55.55,0,0,1,.55.55V29.39A.55.55,0,0,1,155.23,29.94Zm-9.52-1.1h9v-9h-9Z"/><rect class="cls-3" x="158.59" y="19.32" width="10.07" height="10.07"/><path d="M168.66,29.94H158.59a.55.55,0,0,1-.55-.55V19.32a.55.55,0,0,1,.55-.55h10.07a.55.55,0,0,1,.55.55V29.39A.55.55,0,0,1,168.66,29.94Zm-9.52-1.1h9v-9h-9Z"/><rect class="cls-4" x="164.79" y="63.89" width="17.27" height="16.75" transform="translate(346.84 144.52) rotate(-180)"/><path d="M182.06,81.19H164.79a.55.55,0,0,1-.55-.55V63.89a.55.55,0,0,1,.55-.55h17.27a.55.55,0,0,1,.55.55V80.63A.55.55,0,0,1,182.06,81.19Zm-16.72-1.1h16.17V64.44H165.34Z"/><rect class="cls-5" x="164.84" y="53.88" width="14.26" height="9.86" transform="translate(343.94 117.63) rotate(-180)"/><path d="M179.1,64.3H164.84a.55.55,0,0,1-.55-.55V53.88a.55.55,0,0,1,.55-.55H179.1a.55.55,0,0,1,.55.55v9.86A.55.55,0,0,1,179.1,64.3Zm-13.71-1.1h13.16V54.44H165.39Z"/><rect class="cls-2" x="164.84" y="46.34" width="10.03" height="7.38" transform="translate(339.71 100.05) rotate(-180)"/><path d="M174.87,54.26h-10a.55.55,0,0,1-.55-.55V46.34a.55.55,0,0,1,.55-.55h10a.55.55,0,0,1,.55.55v7.37A.55.55,0,0,1,174.87,54.26Zm-9.48-1.1h8.93V46.89h-8.93Z"/><line x1="175.64" y1="65.29" x2="175.64" y2="67.34"/><path d="M175.64,67.52a.19.19,0,0,1-.21-.17V65.29a.21.21,0,0,1,.42,0v2.06A.19.19,0,0,1,175.64,67.52Z"/><line x1="174.82" y1="65.29" x2="174.82" y2="67.34"/><path d="M174.82,67.52a.19.19,0,0,1-.21-.17V65.29a.21.21,0,0,1,.42,0v2.06A.19.19,0,0,1,174.82,67.52Z"/><circle cx="167.48" cy="56.54" r="1.11"/><path class="cls-2" d="M106.24,26.25a.55.55,0,0,1-.39-.94L109.21,22a.55.55,0,1,1,.78.78l-3.36,3.35A.55.55,0,0,1,106.24,26.25Z"/><path class="cls-2" d="M106.24,28.93a.55.55,0,0,1-.39-.94l3.36-3.35a.55.55,0,1,1,.78.78l-3.36,3.35A.55.55,0,0,1,106.24,28.93Z"/><path class="cls-2" d="M109.93,27.26a.55.55,0,0,1-.39-.94L112.9,23a.55.55,0,0,1,.78.78l-3.36,3.35A.55.55,0,0,1,109.93,27.26Z"/><path class="cls-2" d="M120,26.25a.55.55,0,0,1-.39-.94L123,22a.55.55,0,1,1,.78.78l-3.36,3.35A.55.55,0,0,1,120,26.25Z"/><path class="cls-2" d="M120,28.93a.55.55,0,0,1-.39-.94L123,24.64a.55.55,0,1,1,.78.78l-3.36,3.35A.55.55,0,0,1,120,28.93Z"/><path class="cls-2" d="M123.69,27.26a.55.55,0,0,1-.39-.94L126.66,23a.55.55,0,1,1,.78.78l-3.36,3.35A.55.55,0,0,1,123.69,27.26Z"/><path class="cls-2" d="M133.09,26.25a.55.55,0,0,1-.39-.94L136.05,22a.55.55,0,1,1,.78.78l-3.36,3.35A.55.55,0,0,1,133.09,26.25Z"/><path class="cls-2" d="M133.09,28.93a.55.55,0,0,1-.39-.94l3.36-3.35a.55.55,0,0,1,.78.78l-3.36,3.35A.55.55,0,0,1,133.09,28.93Z"/><path class="cls-2" d="M136.78,27.26a.55.55,0,0,1-.39-.94L139.74,23a.55.55,0,0,1,.78.78l-3.36,3.35A.55.55,0,0,1,136.78,27.26Z"/><path class="cls-2" d="M146.51,25.91a.55.55,0,0,1-.39-.94l3.36-3.36a.55.55,0,0,1,.78.78l-3.36,3.36A.55.55,0,0,1,146.51,25.91Z"/><path class="cls-2" d="M146.51,28.6a.55.55,0,0,1-.39-.94l3.36-3.35a.55.55,0,1,1,.78.78l-3.36,3.35A.55.55,0,0,1,146.51,28.6Z"/><path class="cls-2" d="M150.2,26.92a.55.55,0,0,1-.39-.94l3.36-3.35a.55.55,0,1,1,.78.78l-3.36,3.35A.55.55,0,0,1,150.2,26.92Z"/><path class="cls-2" d="M160.27,25.58a.55.55,0,0,1-.39-.94l3.36-3.36a.55.55,0,0,1,.78.78l-3.36,3.36A.55.55,0,0,1,160.27,25.58Z"/><path class="cls-2" d="M160.27,28.26a.55.55,0,0,1-.39-.94L163.23,24a.55.55,0,0,1,.78.78l-3.36,3.35A.55.55,0,0,1,160.27,28.26Z"/><path class="cls-2" d="M164,26.58a.55.55,0,0,1-.39-.94l3.36-3.35a.55.55,0,0,1,.78.78l-3.36,3.35A.55.55,0,0,1,164,26.58Z"/><path d="M80.45,62.25l-3.06-3.13a.38.38,0,0,0-.55.53l2.44,2.49-17.21.2a.38.38,0,0,0,0,.77l17.25-.2-2.5,2.85a.38.38,0,0,0,.58.5l3.07-3.5A.38.38,0,0,0,80.45,62.25Z"/><circle cx="62.09" cy="61.58" r="0.41" transform="translate(0.4 123.55) rotate(-89.89)"/><circle cx="63.68" cy="61.58" r="0.41" transform="translate(1.98 125.15) rotate(-89.89)"/><circle cx="65.28" cy="61.58" r="0.41" transform="translate(3.57 126.75) rotate(-89.89)"/><circle cx="66.95" cy="61.59" r="0.41" transform="translate(5.24 128.43) rotate(-89.89)"/><circle cx="68.55" cy="61.59" r="0.41" transform="translate(6.83 130.02) rotate(-89.89)"/></g></g></svg>