<svg xmlns="http://www.w3.org/2000/svg" viewBox="0 0 146.33 123.08"><defs><style>.cls-1{fill:#dfdfdf;}.cls-2{fill:#fff;}.cls-3{fill:#bd4c5f;}.cls-4{fill:#6da9ad;}.cls-5{fill:#e6d566;}</style></defs><title>SecondInstruction</title><g id="Layer_2" data-name="Layer 2"><g id="Capa_1" data-name="Capa 1"><circle class="cls-1" cx="82.44" cy="61.54" r="59.02"/><path class="cls-2" d="M82.44,121.12A59.57,59.57,0,1,1,142,61.54,59.64,59.64,0,0,1,82.44,121.12Zm0-118a58.47,58.47,0,1,0,58.47,58.47A58.54,58.54,0,0,0,82.44,3.07Z"/><path class="cls-1" d="M82.44,123.08A61.54,61.54,0,1,1,144,61.54,61.61,61.61,0,0,1,82.44,123.08Zm0-122a60.44,60.44,0,1,0,60.44,60.44A60.51,60.51,0,0,0,82.44,1.1Z"/><path d="M83.47,61.2l-4-4.13a.5.5,0,0,0-.72.7l3.21,3.29-22.69.26a.5.5,0,1,0,0,1L82,62.07l-3.3,3.76a.51.51,0,0,0,.76.67l4-4.62A.51.51,0,0,0,83.47,61.2Z"/><circle cx="59.26" cy="60.31" r="0.55" transform="translate(-1.16 119.45) rotate(-89.89)"/><circle cx="61.36" cy="60.31" r="0.55" transform="translate(0.94 121.56) rotate(-89.89)"/><circle cx="63.47" cy="60.31" r="0.55" transform="translate(3.03 123.67) rotate(-89.89)"/><circle cx="65.67" cy="60.32" r="0.55" transform="translate(5.23 125.88) rotate(-89.89)"/><circle cx="67.78" cy="60.32" r="0.55" transform="translate(7.33 127.99) rotate(-89.89)"/><path d="M83.47,75l-4-4.13a.5.5,0,0,0-.72.7l3.21,3.29-22.69.26a.5.5,0,1,0,0,1L82,75.89l-3.3,3.76a.51.51,0,0,0,.76.67l4-4.62A.51.51,0,0,0,83.47,75Z"/><circle cx="59.26" cy="74.13" r="0.55" transform="translate(-14.98 133.25) rotate(-89.89)"/><circle cx="61.36" cy="74.13" r="0.55" transform="translate(-12.88 135.36) rotate(-89.89)"/><circle cx="63.47" cy="74.13" r="0.55" transform="translate(-10.78 137.46) rotate(-89.89)"/><circle cx="65.67" cy="74.14" r="0.55" transform="translate(-8.58 139.67) rotate(-89.89)"/><circle cx="67.78" cy="74.14" r="0.55" transform="translate(-6.49 141.78) rotate(-89.89)"/><rect class="cls-2" x="93.1" y="22.16" width="52.68" height="82.05"/><path d="M145.78,104.76H93.1a.55.55,0,0,1-.55-.55v-82a.55.55,0,0,1,.55-.55h52.68a.55.55,0,0,1,.55.55v82A.55.55,0,0,1,145.78,104.76Zm-52.13-1.1h51.58V22.71H93.65Z"/><path class="cls-3" d="M97.93,29.37h2.59l2.69,20.74h.32l2.69-20.74h2.59L105.55,52.7h-4.34Z"/><path class="cls-3" d="M112,29.37h4.34l3.27,23.33H117l-.71-5.54H112l-.71,5.54H108.7Zm4,15.46L114.3,31.7H114l-1.69,13.13Z"/><path class="cls-3" d="M121.63,29.37h2.59v21h5.51V52.7h-8.1Z"/><path class="cls-3" d="M131.68,29.37h8.75V31.7h-6.16v8.17h4.86V42.2h-4.86v8.17h6.16V52.7h-8.75Z"/><rect class="cls-4" x="96.12" y="87.36" width="46.64" height="12.09"/><path d="M142.76,100H96.12a.55.55,0,0,1-.55-.55V87.36a.55.55,0,0,1,.55-.55h46.64a.55.55,0,0,1,.55.55V99.46A.55.55,0,0,1,142.76,100ZM96.67,98.9h45.54v-11H96.67Z"/><rect x="97.8" y="60.36" width="16.94" height="0.91" rx="0.39" ry="0.39"/><rect x="97.8" y="69.03" width="16.94" height="0.91" rx="0.39" ry="0.39"/><rect x="97.8" y="64.69" width="21.35" height="0.91" rx="0.39" ry="0.39"/><rect x="97.8" y="80.24" width="39.49" height="0.91" rx="0.39" ry="0.39"/><path class="cls-4" d="M11.53,56.26H.72a.69.69,0,1,1,0-1.39H11.53a.69.69,0,1,1,0,1.39Z"/><path class="cls-4" d="M13.32,50.66a.73.73,0,0,1-.51-.2L5.16,43.07a.68.68,0,0,1,0-1,.74.74,0,0,1,1,0l7.65,7.38a.68.68,0,0,1,0,1A.73.73,0,0,1,13.32,50.66Z"/><path class="cls-4" d="M18.67,48.49a.71.71,0,0,1-.72-.69V37.36a.72.72,0,0,1,1.44,0V47.8A.71.71,0,0,1,18.67,48.49Z"/><rect class="cls-2" x="16.89" y="53.26" width="33.51" height="5"/><path d="M50.4,58.81H16.89a.55.55,0,0,1-.55-.55v-5a.55.55,0,0,1,.55-.55H50.4a.55.55,0,0,1,.55.55v5A.55.55,0,0,1,50.4,58.81Zm-33-1.1h32.4v-3.9H17.44Z"/><rect class="cls-5" x="16.89" y="58.03" width="33.51" height="24.6"/><path d="M50.4,83.18H16.89a.55.55,0,0,1-.55-.55V58a.55.55,0,0,1,.55-.55H50.4A.55.55,0,0,1,51,58v24.6A.55.55,0,0,1,50.4,83.18Zm-33-1.1h32.4V58.58H17.44Z"/><rect class="cls-5" x="20.07" y="77.58" width="3.4" height="2.49"/><path d="M23.48,80.62h-3.4a.55.55,0,0,1-.55-.55V77.58a.55.55,0,0,1,.55-.55h3.4a.55.55,0,0,1,.55.55v2.49A.55.55,0,0,1,23.48,80.62Zm-2.85-1.1h2.3V78.13h-2.3Z"/></g></g></svg>